<?xml version="1.0" encoding="UTF-8" standalone="no"?>
<!-- Created with Inkscape (http://www.inkscape.org/) -->

<svg
   xmlns:dc="http://purl.org/dc/elements/1.1/"
   xmlns:cc="http://creativecommons.org/ns#"
   xmlns:rdf="http://www.w3.org/1999/02/22-rdf-syntax-ns#"
   xmlns:svg="http://www.w3.org/2000/svg"
   xmlns="http://www.w3.org/2000/svg"
   xmlns:sodipodi="http://sodipodi.sourceforge.net/DTD/sodipodi-0.dtd"
   xmlns:inkscape="http://www.inkscape.org/namespaces/inkscape"
   id="svg6005"
   version="1.1"
   inkscape:version="0.48.1 "
   width="162.5"
   height="188.75"
   xml:space="preserve"
   sodipodi:docname="Beaver__Ninja.pdf"><metadata
     id="metadata6011"><rdf:RDF><cc:Work
         rdf:about=""><dc:format>image/svg+xml</dc:format><dc:type
           rdf:resource="http://purl.org/dc/dcmitype/StillImage" /><dc:title></dc:title></cc:Work></rdf:RDF></metadata><defs
     id="defs6009" /><sodipodi:namedview
     pagecolor="#ffffff"
     bordercolor="#666666"
     borderopacity="1"
     objecttolerance="10"
     gridtolerance="10"
     guidetolerance="10"
     inkscape:pageopacity="0"
     inkscape:pageshadow="2"
     inkscape:window-width="640"
     inkscape:window-height="480"
     id="namedview6007"
     showgrid="false"
     inkscape:zoom="1.5417219"
     inkscape:cx="81.25"
     inkscape:cy="94.375"
     inkscape:window-x="686"
     inkscape:window-y="158"
     inkscape:window-maximized="0"
     inkscape:current-layer="g6013" /><g
     id="g6013"
     inkscape:groupmode="layer"
     inkscape:label="Beaver__Ninja"
     transform="matrix(1.25,0,0,-1.25,0,188.75)"><g
       id="g6015"
       transform="scale(0.24,0.24)"><path
         d="M 270.141,627.066 C 417.105,627.066 537,507.172 537,360.207 537,213.242 417.105,93.3477 270.141,93.3477 123.176,93.3477 3.28125,213.242 3.28125,360.207 c 0,146.965 119.89475,266.859 266.85975,266.859"
         style="fill:#d12d40;fill-opacity:1;fill-rule:nonzero;stroke:none"
         id="path6017" /><path
         d="m 537.73,360.207 0,0 -0.367,13.793 -1.019,13.5 -1.68,13.426 -2.41,13.062 -2.918,12.914 -3.648,12.7 -4.305,12.406 -4.742,12.183 -5.403,11.825 -5.91,11.601 -6.422,11.164 -7.004,10.871 -7.441,10.508 -7.957,10.07 -8.465,9.782 -8.828,9.265 -9.27,8.828 -9.777,8.465 -10.07,7.957 -10.508,7.442 -10.871,7.004 -11.164,6.422 -11.606,5.914 -11.82,5.398 -12.187,4.742 -12.403,4.305 -12.699,3.648 -12.914,2.922 -13.063,2.406 -13.425,1.68 -13.5,1.02 -13.793,0.367 0,-1.461 13.644,-0.363 13.5,-1.024 13.281,-1.679 13.063,-2.407 12.914,-2.918 12.555,-3.648 12.402,-4.16 12.043,-4.742 11.82,-5.403 11.457,-5.91 11.164,-6.422 10.727,-6.859 10.508,-7.442 10.07,-7.953 9.633,-8.32 9.266,-8.832 8.832,-9.266 8.316,-9.633 7.957,-10.07 7.441,-10.508 6.86,-10.726 6.422,-11.164 5.91,-11.457 5.402,-11.821 4.742,-12.043 4.16,-12.402 3.649,-12.555 2.918,-12.914 2.406,-13.062 1.68,-13.281 1.023,-13.5 0.364,-13.645 1.46,0"
         style="fill:#ffffff;fill-opacity:1;fill-rule:nonzero;stroke:none"
         id="path6019" /><path
         d="m 270.141,92.6172 0,0 13.793,0.3672 13.5,1.0195 13.425,1.6797 13.063,2.4062 12.914,2.9222 12.699,3.648 12.403,4.305 12.187,4.742 11.82,5.398 11.606,5.915 11.164,6.418 10.871,7.007 10.508,7.442 10.07,7.953 9.777,8.465 9.27,8.832 8.828,9.265 8.465,9.778 7.957,10.074 7.441,10.508 7.004,10.871 6.422,11.164 5.91,11.601 5.403,11.825 4.742,12.183 4.305,12.407 3.648,12.699 2.918,12.914 2.41,13.062 1.68,13.426 1.019,13.5 0.367,13.793 -1.46,0 -0.364,-13.644 -1.023,-13.5 -1.68,-13.282 -2.406,-13.062 -2.918,-12.918 -3.649,-12.551 -4.16,-12.402 -4.742,-12.043 -5.402,-11.821 -5.91,-11.457 -6.422,-11.164 -6.86,-10.726 -7.441,-10.508 -7.957,-10.07 -8.316,-9.633 -8.832,-9.27 -9.266,-8.828 -9.633,-8.32 -10.07,-7.953 -10.508,-7.442 -10.727,-6.859 -11.164,-6.422 -11.457,-5.91 -11.82,-5.402 -12.043,-4.743 -12.402,-4.16 -12.555,-3.648 -12.914,-2.9182 -13.063,-2.4102 -13.281,-1.6758 -13.5,-1.0234 -13.644,-0.3633 0,-1.4609"
         style="fill:#ffffff;fill-opacity:1;fill-rule:nonzero;stroke:none"
         id="path6021" /><path
         d="m 2.55469,360.207 0,0 0.36328,-13.793 1.02344,-13.5 1.67578,-13.426 2.41015,-13.062 2.91796,-12.914 3.6485,-12.699 4.3046,-12.407 4.7422,-12.183 5.4024,-11.825 5.9101,-11.601 6.4219,-11.164 7.0039,-10.871 7.4453,-10.508 7.9531,-10.074 8.4649,-9.778 8.8281,-9.265 9.2695,-8.832 9.7772,-8.465 10.071,-7.953 10.507,-7.442 10.871,-7.007 11.168,-6.418 11.602,-5.915 11.82,-5.398 12.188,-4.742 12.406,-4.305 12.695,-3.648 12.918,-2.9222 13.059,-2.4062 13.426,-1.6797 13.5,-1.0195 13.793,-0.3672 0,1.4609 -13.645,0.3633 -13.5,1.0234 -13.281,1.6758 -13.063,2.4102 -12.914,2.9182 -12.55,3.648 -12.407,4.16 -12.039,4.743 -11.824,5.402 -11.457,5.91 -11.164,6.422 -10.727,6.859 -10.507,7.442 -10.071,7.953 -9.6326,8.32 -9.2656,8.828 -8.8321,9.27 -8.3164,9.633 -7.9531,10.07 -7.4453,10.508 -6.8594,10.726 -6.4219,11.164 -5.9101,11.457 -5.3985,11.821 -4.7461,12.043 -4.1562,12.402 -3.6484,12.551 -2.92192,12.918 -2.40625,13.062 -1.67969,13.282 -1.01953,13.5 -0.36719,13.644 -1.45703,0"
         style="fill:#ffffff;fill-opacity:1;fill-rule:nonzero;stroke:none"
         id="path6023" /><path
         d="m 270.141,627.797 0,0 -13.793,-0.367 -13.5,-1.02 -13.426,-1.68 -13.059,-2.406 -12.918,-2.922 -12.695,-3.648 -12.406,-4.305 -12.188,-4.742 -11.82,-5.398 -11.602,-5.914 -11.168,-6.422 -10.871,-7.004 -10.507,-7.442 -10.071,-7.957 -9.7772,-8.465 -9.2695,-8.828 -8.8281,-9.265 L 63.7773,530.23 55.8242,520.16 48.3789,509.652 41.375,498.781 34.9531,487.617 29.043,476.016 23.6406,464.191 18.8984,452.008 14.5938,439.602 10.9453,426.902 8.02734,413.988 5.61719,400.926 3.94141,387.5 2.91797,374 2.55469,360.207 l 1.45703,0 0.36719,13.645 1.01953,13.5 1.67969,13.281 2.40625,13.062 2.92192,12.914 3.6484,12.555 4.1562,12.402 4.7461,12.043 5.3985,11.821 5.9101,11.457 6.4219,11.164 6.8594,10.726 7.4453,10.508 7.9531,10.07 8.3164,9.633 8.8321,9.266 9.2656,8.832 9.6326,8.32 10.071,7.953 10.507,7.442 10.727,6.859 11.164,6.422 11.457,5.91 11.824,5.403 12.039,4.742 12.407,4.16 12.55,3.648 12.914,2.918 13.063,2.407 13.281,1.679 13.5,1.024 13.645,0.363 0,1.461"
         style="fill:#ffffff;fill-opacity:1;fill-rule:nonzero;stroke:none"
         id="path6025" /><path
         d="m 459.723,0.453125 c 5.035,0.148438 9.558,2.042965 14.593,3.648435 4.305,2.48438 9.266,4.89063 10.582,9.85154 0.219,0.7305 0.219,1.2422 0.219,1.7539 -0.219,0.3633 -0.586,0.6563 -1.097,1.0196 l -3.063,5.1093 c -23.934,15.9805 -48.16,40.0625 -70.418,64.2149 -5.109,2.5547 -7.59,8.0273 -12.262,11.8203 -11.964,14.7419 -26.047,28.7499 -38.308,43.1989 -6.129,6.352 -10.508,13.282 -15.469,19.852 -5.84,8.461 -11.094,15.613 -15.762,24.226 -0.441,0.364 -0.879,0.875 -1.316,1.165 -8.828,15.984 -19.192,31.308 -25.395,49.257 3.211,0.582 6.203,0.293 9.563,0.582 8.902,-0.582 16.855,0.512 25.246,-2.187 4.961,-1.824 6.496,-7.66 7.445,-12.188 0.582,-5.254 0.801,-10.289 1.824,-15.105 l 2.407,-1.824 c 4.234,-15.395 13.793,-28.895 27.875,-37.653 7.515,-3.867 16.492,-6.64 24.156,-2.336 2.988,1.168 2.988,4.016 5.18,5.11 4.816,-2.262 10.726,-2.992 15.687,-0.364 2.043,1.458 2.336,3.793 3.43,5.399 4.16,-0.656 9.562,-1.824 12.918,1.387 2.406,2.992 5.18,5.254 4.887,9.339 -3.356,8.102 -12.114,9.559 -18.899,12.918 -0.582,-0.074 -1.023,0 -1.75,-0.074 l -1.898,1.824 11.457,0.145 c 0.218,0 0.293,0.437 0.293,0.875 -0.075,0.293 -0.368,0.586 -0.879,1.023 -5.543,-0.437 -12.621,0.438 -16.637,4.231 0,0.293 0,0.66 0.367,0.879 l 4.524,-0.219 c 4.668,17.148 6.785,35.461 7.078,53.34 -0.293,5.402 -0.219,10.508 -0.293,15.691 -1.531,13.282 -2.117,29.114 -12.406,37.36 -3.282,1.461 -5.399,4.816 -8.465,6.57 -6.418,4.812 -13.207,8.316 -19.774,12.332 12.039,25.027 16.563,56.332 7.735,83.918 -2.7,4.961 -6.934,9.121 -9.926,12.988 3.578,11.02 4.453,22.914 7.664,34.367 2.262,7.665 1.094,14.305 -3.793,19.122 -0.293,12.55 -8.613,22.984 -12.48,34.371 -3.649,7.66 -5.692,16.269 -8.754,23.714 -0.512,1.458 -2.411,1.458 -4.09,2.043 l -4.961,8.247 -13.063,8.316 c 4.235,5.984 9.926,13.5 7.371,22.477 -4.378,8.39 -12.988,13.281 -21.964,15.691 -3.649,-0.074 -6.641,-1.828 -7.954,-4.379 -1.46,-2.992 -0.875,-5.328 -1.535,-7.957 -0.508,-5.473 0.95,-10.727 0.95,-15.688 -0.29,-2.117 -3.356,-0.511 -4.45,-0.582 -21.601,5.543 -43.785,2.774 -64.582,-4.527 -1.238,8.832 0,19.047 -4.816,27 -1.313,0.949 -1.457,2.192 -2.043,3.067 l -2.188,1.238 c -11.531,-4.524 -21.527,-14.446 -25.757,-26.778 -1.243,-6.789 0.656,-13.429 5.91,-16.492 2.48,-1.679 5.398,-3.722 8.465,-3.504 l -9.563,-18.972 c -0.144,-0.075 -0.582,-0.293 -1.094,-0.438 -2.476,1.387 -4.593,5.035 -7.074,6.496 -3.648,3.649 -7.152,5.617 -11.019,8.098 -27.731,15.324 -62.758,15.324 -91.145,2.043 -6.711,-4.16 -13.4257,-8.027 -18.6054,-12.914 -1.6055,-1.461 -2.6289,-3.285 -4.0157,-3.36 -13.5,-10.07 -21.3046,-24.515 -30.8671,-37.07 -10.7266,-17.949 -16.7813,-41.519 -17.6563,-64.359 -0.5859,-9.559 -0.2187,-17.442 -0.4375,-27.074 2.2617,-15.325 5.0352,-31.375 9.9219,-46.481 8.6133,-25.687 20.2148,-47.215 38.8945,-62.613 0,-0.07 0,-0.656 -0.1445,-1.164 0.7304,0 0,-0.66 0.9492,0 10.2891,-8.539 19.6289,-16.348 30.9379,-22.114 6.347,-2.113 11.675,-7.441 18.535,-7.078 0.511,0 0.875,-0.07 1.168,-0.511 1.531,-3.426 1.824,-7.735 3.136,-11.235 3.43,-10.508 7.809,-20.652 10.946,-30.941 4.09,-7.078 7.519,-13.574 11.75,-19.777 0,-0.583 0.293,-1.239 0.586,-1.75 l 9.121,-2.407 c 0,-0.074 0,-0.367 0,-0.66 l -13.063,-1.969 c -1.097,-0.293 -0.293,-1.679 0,-2.187 1.239,-0.586 1.532,0.363 2.992,0.508 l 7.223,-1.313 c 0.219,0 0.363,-0.363 0.363,-0.949 -7.878,-2.188 -18.679,3.211 -25.757,-3.356 -2.993,-2.406 -3.067,-6.347 -2.407,-9.339 1.164,-2.043 1.825,-3.211 3.356,-4.161 0,-3.355 1.312,-5.984 3.211,-8.39 4.742,-3.649 11.894,-2.336 17.367,-2.918 2.918,-3.578 6.859,-2.774 10.144,-4.453 10.797,-1.899 21.524,1.898 31.45,5.254 11.82,4.011 20.797,9.851 28.894,18.972 l 0.293,7.223 c -0.293,1.535 -2.191,2.117 -1.898,4.016 0.074,0.582 0.656,0.8 0.949,1.679 l 0,2.262 3.066,1.75 c -3.066,9.707 -12.261,19.117 -10.656,31.305 1.531,3.574 4.235,5.398 7.008,7.152 2.113,-0.875 4.523,-4.891 8.391,-3.941 5.109,3.722 12.55,4.597 19.191,3.941 5.254,-15.324 10.07,-34.078 16.637,-50.352 11.601,-30.21 28.824,-53.562 46.265,-78.3 33.274,-46.3362 80.852,-80.9261 126.75,-104.71516 0.293,-0.4375 0.586,-0.80078 1.168,-1.38671 l 3.36,-0.875005"
         style="fill:#231f20;fill-opacity:1;fill-rule:nonzero;stroke:none"
         id="path6027" /><path
         d="m 464.758,3.8125 c 7.148,2.04297 14.082,4.74219 17.437,11.3086 l -7.297,7.6641 c -16.418,13.7187 -35.972,31.0859 -51.734,47.5039 -16.785,2.9922 -34.734,1.457 -50.719,-3.5743 -1.168,-0.8789 -1.238,-1.4609 -1.75,-2.0468 4.379,-4.8867 11.094,-9.2657 15.836,-14.7383 15.395,-10.8008 30.5,-22.4766 46.774,-32.6172 8.32,-3.5039 14.449,-8.32031 22.476,-11.09375 3.211,-0.65625 6.203,-1.23828 8.977,-2.40625"
         style="fill:#ffffff;fill-opacity:1;fill-rule:nonzero;stroke:none"
         id="path6029" /><path
         d="m 367.34,67.6602 c 14.012,8.9765 33.055,6.5703 49.691,7.1523 -0.508,2.6289 -5.398,6.3477 -7.953,8.4648 -7.297,1.0938 -13.863,0 -20.871,-0.582 -0.727,0 -0.945,0.2891 -0.582,0.875 l 3.941,0.8008 c -11.019,0 -24.3,-1.0938 -34.152,-6.7852 1.313,-3.5742 7.008,-6.7148 9.559,-10.2148 l 0.367,0.2891"
         style="fill:#c4c4c2;fill-opacity:1;fill-rule:nonzero;stroke:none"
         id="path6031" /><path
         d="m 352.746,82.4023 c 9.922,9.2657 25.902,12.2579 39.184,18.8277 l -8.317,9.997 c -8.758,1.675 -17.367,-3.797 -25.832,-6.422 -6.422,-2.336 -11.676,-5.7659 -15.617,-10.4339 l 9.777,-12.043 0.805,0.0742"
         style="fill:#c4c4c2;fill-opacity:1;fill-rule:nonzero;stroke:none"
         id="path6033" /><path
         d="m 358.945,82.1094 c 13.575,4.3789 27.805,3.9414 41.598,5.6211 1.531,-0.6602 3.281,-0.0742 4.887,-0.3672 l -10.508,10.7265 c -12.625,-3.4296 -27.363,-7.5859 -36.34,-15.7617 l 0.363,-0.2187"
         style="fill:#ffffff;fill-opacity:1;fill-rule:nonzero;stroke:none"
         id="path6035" /><path
         d="m 339.828,97.5078 c 9.559,8.6092 24.594,14.2302 39.406,17.2222 l -6.789,8.903 c -0.582,0 -0.945,-0.219 -1.75,-0.442 -8.976,2.266 -19.484,-4.086 -28.605,-6.929 -4.379,-1.606 -8.317,-4.598 -9.559,-8.832 l 6.86,-10.1409 0.437,0.2187"
         style="fill:#c4c4c2;fill-opacity:1;fill-rule:nonzero;stroke:none"
         id="path6037" /><path
         d="m 329.684,111.664 c 0.148,0 0.437,0 0.879,0.293 2.55,4.305 7.515,5.18 11.527,7.66 8.832,3.43 17.441,6.203 26.051,8.321 l -13.133,13.792 c -13.938,4.375 -29.117,9.922 -44.004,11.672 l -4.524,-7.586 c 5.766,-12.625 15.032,-22.769 23.204,-34.152"
         style="fill:#ffffff;fill-opacity:1;fill-rule:nonzero;stroke:none"
         id="path6039" /><path
         d="m 352.891,145.379 c -4.672,6.855 -8.684,14.226 -17.512,16.707 l -14.816,3.941 -7.442,-8.976 39.77,-11.821 0,0.149"
         style="fill:#c4c4c2;fill-opacity:1;fill-rule:nonzero;stroke:none"
         id="path6041" /><path
         d="m 304.289,149.828 5.984,8.902 18.172,20.215 -3.941,6.641 c -9.852,-5.328 -20.434,-16.859 -25.688,-26.27 l 5.036,-9.488 0.437,0"
         style="fill:#c4c4c2;fill-opacity:1;fill-rule:nonzero;stroke:none"
         id="path6043" /><path
         d="m 183.305,158.73 c 6.64,-0.582 13.355,1.75 19.629,3.575 13.793,4.672 27.289,9.269 33.711,21.82 l -1.457,3.793 c -6.278,-5.18 -11.383,-9.559 -18.754,-12.695 -4.887,-1.461 -8.246,-3.649 -11.746,-6.934 -0.586,0 -0.95,0.367 -1.172,1.094 l 4.164,5.621 -18.246,-3.137 c -1.313,-0.586 -2.555,-2.484 -4.45,-1.898 -0.218,0.144 -0.437,0.582 -0.437,1.094 l 5.691,4.89 -8.027,0.219 c -0.512,-0.219 -0.875,-0.586 -1.168,-1.168 -3.648,-1.606 -8.102,-2.188 -10.145,-6.129 l 2.262,-7.152 10.145,-2.993"
         style="fill:#ba9737;fill-opacity:1;fill-rule:nonzero;stroke:none"
         id="path6045" /><path
         d="m 296.848,162.672 4.453,6.566 -2.262,0.145 -5.91,-0.145 3.355,-6.711 0.364,0.145"
         style="fill:#c4c4c2;fill-opacity:1;fill-rule:nonzero;stroke:none"
         id="path6047" /><path
         d="m 158.566,163.84 6.789,0 c 1.895,0.949 0.071,4.012 1.313,6.129 2.117,3.066 5.398,5.836 9.266,6.859 l 6.789,5.254 c -8.395,2.117 -17.879,0 -25.981,-3.723 -2.992,-1.238 -4.012,-4.886 -3.937,-7.808 1.164,-2.988 1.894,-6.711 5.761,-6.711"
         style="fill:#ba9737;fill-opacity:1;fill-rule:nonzero;stroke:none"
         id="path6049" /><path
         d="m 337.492,165.445 0.586,0 -7.297,10.36 -7.515,-6.785 14.226,-3.575"
         style="fill:#ffffff;fill-opacity:1;fill-rule:nonzero;stroke:none"
         id="path6051" /><path
         d="m 389.305,166.027 c 4.16,0 8.39,1.536 11.527,3.942 1.535,2.261 1.242,5.617 -0.437,7.808 -2.118,2.481 -4.161,3.282 -5.473,4.961 -7.66,0.586 -15.688,3.575 -21.891,7.078 l 4.891,-6.859 -1.024,-2.117 c -9.05,3.066 -15.179,9.414 -23.425,16.93 5.472,-12.622 15.617,-26.122 30.14,-30.5 2.114,-0.293 4.012,-0.657 5.692,-1.243"
         style="fill:#ba9737;fill-opacity:1;fill-rule:nonzero;stroke:none"
         id="path6053" /><path
         d="m 413.02,171.281 6.785,1.754 c 1.461,2.188 2.918,5.91 0.879,8.754 -5.696,6.352 -14.743,4.524 -22.407,7.078 -2.48,0.586 -4.812,0.805 -7.004,1.168 4.817,-5.836 12.551,-8.609 14.743,-16.637 l 7.004,-2.117"
         style="fill:#ba9737;fill-opacity:1;fill-rule:nonzero;stroke:none"
         id="path6055" /><path
         d="m 302.613,173.18 c 6.785,3.355 13.719,11.457 19.774,16.492 l -13.571,26.414 c -0.293,0.437 -1.168,0.293 -1.461,-0.145 -9.703,0 -21.308,-3.429 -28.75,-8.832 1.094,-11.234 7.516,-23.203 12.258,-33.129 l 11.75,-0.8"
         style="fill:#ffffff;fill-opacity:1;fill-rule:nonzero;stroke:none"
         id="path6057" /><path
         d="m 192.207,173.398 16.93,5.985 1.75,1.676 c 0.586,0.148 0.949,0.148 1.609,0 0.582,-0.364 0.875,-1.164 1.164,-2.114 l -1.824,-3.14 c 9.414,3.14 17.805,9.343 23.641,18.39 -16.051,-1.168 -33.782,-4.379 -50.493,-0.582 -4.816,0.438 -8.613,-0.586 -12.918,-1.097 l 7.079,-3.43 -0.875,-2.113 -7.223,-0.879 18.973,-1.969 c 0.218,-0.219 0.289,-0.582 0.582,-1.168 0,-0.437 -0.293,-0.801 -0.582,-1.168 l -6.715,-2.625 14.086,1.313 c 0.507,-0.219 0.656,-0.582 1.093,-1.532 -0.437,-3.14 -4.523,-3.359 -6.64,-5.472 l 0.363,-0.075"
         style="fill:#ba9737;fill-opacity:1;fill-rule:nonzero;stroke:none"
         id="path6059" /><path
         d="m 149.445,176.754 c 2.262,4.453 7.297,5.328 12.262,7.445 0,0.364 0,0.875 0.219,1.313 l 2.844,1.168 c -3.649,1.461 -8.903,0 -12.551,-1.606 -3.356,-2.336 -3.504,-6.129 -3.356,-8.683 l 0.582,0.363"
         style="fill:#ba9737;fill-opacity:1;fill-rule:nonzero;stroke:none"
         id="path6061" /><path
         d="m 429.363,177.34 c 2.774,0 5.985,1.238 7.664,3.867 0.582,1.313 1.68,1.75 1.899,2.918 l 0.582,2.188 c -1.168,3.941 -5.254,4.89 -8.539,6.714 -0.071,-0.144 -0.364,-0.511 -0.438,-1.093 l -20.867,1.679 c 4.086,-4.816 13.059,-6.64 15.762,-14.086 l 3.937,-2.187"
         style="fill:#ba9737;fill-opacity:1;fill-rule:nonzero;stroke:none"
         id="path6063" /><path
         d="m 390.98,185.73 -6.785,7.883 c 0,0.582 0.293,1.383 0.582,1.676 0.293,0.293 0.586,0.367 1.168,0.586 6.789,-3.359 15.543,-5.547 23.719,-6.422 l -7.297,7.59 c 0,0.727 0.289,1.605 1.164,1.969 5.254,-1.824 11.457,-4.016 17.879,-4.016 l -11.164,11.676 c -19.41,-3.5 -38.601,-1.824 -58.086,-1.824 2.481,-7.442 11.676,-12.332 16.93,-17.293 0.949,-0.293 1.242,-0.582 1.605,-0.875 l -3.355,6.347 c 0,0.438 0.219,0.805 0.582,1.168 6.715,-0.144 13.207,-7.808 21.82,-8.101 0.656,-0.071 0.949,-0.071 1.238,-0.364"
         style="fill:#ba9737;fill-opacity:1;fill-rule:nonzero;stroke:none"
         id="path6065" /><path
         d="m 198.484,194.707 c 12.403,-0.512 25.321,1.168 37.579,3.063 0.656,0.293 1.238,0.585 1.238,0.585 0.293,0 0.367,0.293 0.66,0.875 -5.914,8.321 -12.992,23.352 -7.738,34.442 2.554,2.773 4.672,4.234 7.738,5.547 -0.949,5.547 2.113,10.144 6.711,13.355 2.555,1.895 4.891,3.942 7.371,5.324 0.074,0.075 0.293,0.442 0.293,1.024 -4.527,4.668 -13.793,2.336 -18.172,9.121 -1.68,3.723 -3.062,7.66 -3.062,11.164 -0.149,1.754 -1.754,0 -2.043,-0.582 -2.774,-3.141 -3.723,-6.859 -6.934,-8.977 -4.816,1.532 -9.629,3.649 -14.082,5.836 -14.23,7.446 -27.293,19.922 -38.676,32.473 -2.187,2.922 -3.722,5.328 -5.472,8.176 -7.735,-1.68 -12.188,-10.582 -17.004,-16.199 -13.571,-26.125 1.824,-58.016 11.75,-83.192 3.429,-5.762 5.547,-11.308 10.363,-14.738 l 0.656,-1.824 28.824,-5.473"
         style="fill:#9a4472;fill-opacity:1;fill-rule:nonzero;stroke:none"
         id="path6067" /><path
         d="m 351.066,208.133 c 21.965,1.023 45.606,-3.793 66.844,4.305 5.836,30.941 11.453,67.062 -3.797,95.519 -9.922,8.613 -18.605,15.106 -30.5,20.289 -0.441,0.363 -0.949,0.656 -0.949,0.656 -8.613,-12.55 -21.309,-24.593 -33.859,-33.785 -6.059,-2.773 -10.508,-6.133 -16.274,-8.613 -4.086,-2.043 -7.734,-3.649 -11.968,-5.399 l 4.527,0.512 c 4.594,-1.824 6.859,-6.715 8.902,-10.801 -4.746,-10.144 -14.379,-18.242 -22.402,-25.394 l -13.5,1.168 2.406,-7.371 c 6.277,-0.364 13.574,2.48 20.652,1.023 5.618,0 11.09,-1.387 16.344,-2.117 5.254,-2.043 8.539,-6.277 9.559,-12.988 1.828,-5.914 0.879,-12.043 3.211,-17.223 l 0.804,0.219"
         style="fill:#9a4472;fill-opacity:1;fill-rule:nonzero;stroke:none"
         id="path6069" /><path
         d="m 276.633,210.613 c 7.957,5.035 18.683,7.008 28.754,9.27 0,0 0.437,0.289 0.582,0.875 l -3.574,7.59 c -8.391,-0.879 -19.34,-2.41 -26.344,-7.59 -0.438,-1.461 -1.387,-1.535 -1.969,-2.336 l 1.969,-7.734 0.582,-0.075"
         style="fill:#c4c4c2;fill-opacity:1;fill-rule:nonzero;stroke:none"
         id="path6071" /><path
         d="m 272.695,223.164 c 7.223,5.547 18.243,6.133 28.094,8.395 l -10.144,23.421 c -0.508,0.438 -0.875,0.805 -1.532,0.95 -6.933,0 -14.668,-3.137 -20.797,-6.203 -1.093,-8.247 0.731,-18.754 4.379,-26.563"
         style="fill:#ffffff;fill-opacity:1;fill-rule:nonzero;stroke:none"
         id="path6073" /><path
         d="m 246.934,235.277 17.148,10.727 c 0.293,2.41 0,5.766 3.141,6.789 7.515,2.187 15.613,6.492 24.078,7.004 3.578,-1.899 3.578,-5.766 5.258,-9.633 7.004,0 16.195,-2.043 20.504,3.723 4.085,5.617 10.652,9.414 12.988,15.179 l -5.547,8.465 c -26.051,1.383 -52.684,-10.07 -72.461,-23.062 -3.941,-3.574 -9.559,-6.274 -9.559,-11.821 21.528,14.743 53.196,27.364 83.262,27.95 0.875,-0.586 1.238,-0.657 1.676,-0.95 0,-0.218 0.148,-0.656 0.148,-1.168 0,-0.074 -0.367,-0.437 -0.804,-0.949 -30.43,0.293 -62.098,-12.113 -83.625,-28.894 l 1.023,-1.973 2.77,-1.387"
         style="fill:#fbe305;fill-opacity:1;fill-rule:nonzero;stroke:none"
         id="path6075" /><path
         d="m 258.758,238.855 6.492,1.168 -0.289,2.625 -6.645,-3.429 c 0.223,0.219 -1.089,-1.531 0.442,-0.364"
         style="fill:#9a4472;fill-opacity:1;fill-rule:nonzero;stroke:none"
         id="path6077" /><path
         d="m 257.078,261.328 2.774,1.535 c -1.536,3.793 -1.313,9.559 0.218,14.082 4.012,5.91 10.508,8.391 17.731,8.684 5.254,-0.363 8.906,-2.699 10.726,-6.422 0.368,-1.094 0.075,-2.043 0.95,-2.844 0,0 0.148,-0.293 0.66,-0.511 0.215,0 0.801,0.218 1.164,0.363 1.898,4.527 1.168,10.582 -1.238,14.742 -4.817,3.867 -6.059,9.559 -9.27,13.645 -0.145,0.293 -0.289,0.875 -0.289,0.875 -5.184,1.972 -9.926,4.671 -16.129,4.89 -3.723,2.774 -9.777,3.356 -13.281,2.043 -10.071,-4.961 -15.25,-14.887 -19.992,-23.133 -0.149,-0.726 -0.586,-1.093 0,-1.461 l 3.5,-1.312 c 1.168,-6.348 0.875,-14.664 6.714,-18.973 6.204,-0.656 12.332,-1.676 15.762,-6.203"
         style="fill:#ba9737;fill-opacity:1;fill-rule:nonzero;stroke:none"
         id="path6079" /><path
         d="m 263.207,264.613 21.965,9.633 c 0,0.875 0.656,0 0.074,1.02 -5.91,1.679 -14.086,-1.02 -19.121,-4.086 -1.457,-1.532 -2.406,-2.188 -3.355,-2.7 -0.875,-0.656 -0.875,-2.406 -0.293,-3.648 0.293,0 0.367,0 0.73,-0.219"
         style="fill:#fbe305;fill-opacity:1;fill-rule:nonzero;stroke:none"
         id="path6081" /><path
         d="m 137.039,265.125 c 0.293,0 0.731,0 1.168,0.289 l -1.68,13.649 -15.757,8.171 -12.918,8.172 c -7.223,6.641 -16.5629,12.262 -23.934,21.235 -10.8008,11.386 -18.3907,23.718 -25.25,38.019 -10.1407,32.91 -12.4766,65.895 -8.1719,98.442 1.8984,9.558 5.1094,18.461 7.8828,27.726 4.3047,11.094 9.2656,20.578 14.2266,29.774 -5.543,-6.711 -8.6094,-13.571 -14.2266,-20.797 C 45.168,467.477 41.3008,438.066 41.8867,412.602 42.4688,389.98 46.7734,366.336 55.75,345.613 c 7.5156,-20.652 18.6094,-35.172 32.8359,-50.207 14.4491,-13.718 29.1911,-23.64 48.4531,-30.281"
         style="fill:#ba9737;fill-opacity:1;fill-rule:nonzero;stroke:none"
         id="path6083" /><path
         d="m 262.77,272.129 c 4.597,4.672 12.918,6.422 20.066,7.078 -2.332,2.481 -8.098,2.773 -11.676,1.535 -3.793,-0.586 -6.199,-2.41 -7.953,-5.476 -0.363,-1.313 -0.949,-1.676 -1.019,-2.844 0,-0.074 0,-0.656 0.582,-0.293"
         style="fill:#fbe305;fill-opacity:1;fill-rule:nonzero;stroke:none"
         id="path6085" /><path
         d="m 221.395,274.172 c 5.765,15.691 10.871,30.723 24.808,41.012 0,1.968 -2.48,2.406 -3.719,3.574 l -20.726,-5.766 c -2.914,-13.058 -1.895,-26.121 -0.945,-39.183 l 0.582,0.363"
         style="fill:#9a4472;fill-opacity:1;fill-rule:nonzero;stroke:none"
         id="path6087" /><path
         d="m 217.02,275.266 0.363,0.218 0.805,36.344 -9.051,-2.629 c -0.145,-0.293 -0.364,-0.363 -0.731,-0.875 -1.312,-9.265 -1.312,-19.047 -0.945,-28.531 l 9.559,-4.527"
         style="fill:#c4c4c2;fill-opacity:1;fill-rule:nonzero;stroke:none"
         id="path6089" /><path
         d="m 296.336,277.75 6.641,1.75 7.371,27.875 -9.852,4.816 c 1.531,-10.582 -5.109,-20.214 -4.23,-30.574 -0.368,-1.535 -0.293,-2.703 -0.368,-3.867 l 0.438,0"
         style="fill:#9a4472;fill-opacity:1;fill-rule:nonzero;stroke:none"
         id="path6091" /><path
         d="m 307.063,280.156 8.32,2.699 c 0.73,5.11 1.68,11.094 3.941,15.981 4.524,18.391 7.297,36.633 10.141,55.023 l -9.559,-7.152 c 0,-10.652 -3.429,-21.891 -5.254,-32.473 -2.699,-11.75 -6.422,-23.058 -8.172,-34.152 l 0.583,0.074"
         style="fill:#c4c4c2;fill-opacity:1;fill-rule:nonzero;stroke:none"
         id="path6093" /><path
         d="m 204.688,280.961 0.656,26.707 -20.946,-10.508 c 5.84,-6.351 13.356,-12.187 20.071,-16.64 l 0.219,0.441"
         style="fill:#9a4472;fill-opacity:1;fill-rule:nonzero;stroke:none"
         id="path6095" /><path
         d="m 257.66,280.52 c 0.586,0.222 0.879,0.222 1.68,0.585 2.336,3.575 5.328,7.879 10.656,8.028 1.164,0 1.531,-0.438 2.332,-0.438 0.367,0 0.656,0.289 0.949,0.582 0.075,0.586 0.075,0.95 0,1.68 -5.105,1.094 -11.968,-1.094 -15.617,-4.453 -1.383,-1.238 -1.676,-1.531 -2.113,-2.774 l 1.312,-3.21 c 0.219,0 0.368,0 0.801,0"
         style="fill:#231f20;fill-opacity:1;fill-rule:nonzero;stroke:none"
         id="path6097" /><path
         d="m 137.039,281.98 c 0,11.602 5.547,21.454 13.356,28.168 2.992,4.086 7.664,7.661 10.726,10.145 -7.152,14.664 -8.391,31.594 -7.734,48.012 5.254,22.113 10.215,46.047 23.933,61.226 l 0.368,4.524 10.726,14.742 4.961,-0.949 c 1.168,-0.879 1.898,-2.118 2.699,-3.723 1.461,-0.145 2.555,1.168 3.504,2.262 0.949,5.836 -2.918,9.851 -3.211,15.324 3.793,17.148 5.035,37.215 13.938,51.738 l 2.117,0.801 5.766,12.699 -7.883,8.61 c -1.313,0.218 -1.68,1.386 -2.844,2.336 -6.133,3.941 -12.555,7.734 -20.215,10.214 -18.828,6.348 -38.676,6.129 -56.918,2.118 -2.41,-0.145 -4.086,-1.532 -6.203,-1.532 -20.797,-6.351 -37.5078,-21.746 -49.0391,-39.113 -15.1757,-25.98 -26.5586,-61.078 -24.1523,-92.457 0.9492,-9.559 0.9492,-18.973 3.3555,-28.605 0.1445,-8.61 1.9726,-16.344 4.0898,-24.52 2.1875,-8.68 5.8359,-14.594 10.2149,-21.234 7.2968,-13.5 16.2734,-23.641 28.5312,-35.391 9.559,-7.004 17.879,-14.375 28.094,-19.777 3.941,-2.332 7.297,-4.086 11.676,-5.91 l 0.144,0.292"
         style="fill:#ba9737;fill-opacity:1;fill-rule:nonzero;stroke:none"
         id="path6099" /><path
         d="m 319.613,284.098 23.133,11.82 -20.066,6.934 -3.649,-18.973 0.582,0.219"
         style="fill:#9a4472;fill-opacity:1;fill-rule:nonzero;stroke:none"
         id="path6101" /><path
         d="m 294.512,291.469 c 4.16,9.703 3.285,19.261 0.586,29.043 -2.629,3.355 -2.481,8.754 -6.571,10.871 -8.464,2.043 -16.125,0.219 -24.152,1.824 -5.836,-2.773 -9.777,-7.516 -11.457,-12.914 -0.219,-1.316 -0.219,-2.117 -0.219,-3.066 l 23.352,-5.618 c 0.219,-0.148 0.582,-0.586 0.801,-0.879 8.906,-3.281 10.73,-13.57 17.296,-19.554 l 0.364,0.293"
         style="fill:#ba9737;fill-opacity:1;fill-rule:nonzero;stroke:none"
         id="path6103" /><path
         d="m 347.051,298.473 8.613,6.422 -29.629,10.875 -2.113,-8.977 22.766,-8.539 0.363,0.219"
         style="fill:#c4c4c2;fill-opacity:1;fill-rule:nonzero;stroke:none"
         id="path6105" /><path
         d="m 182.211,298.836 c 1.969,1.535 4.453,2.773 6.785,4.016 6.277,3.574 12.988,6.054 20.141,9.121 10.726,2.843 19.554,6.422 29.699,10.144 l -6.57,6.785 c -0.582,-0.218 -0.582,-0.656 -1.164,-1.168 -4.598,-0.656 -9.707,-1.605 -14.668,-2.918 -8.536,-1.168 -16.274,-5.691 -23.641,-7.589 -6.496,-3.356 -13.504,-6.204 -19.34,-9.27 l 8.246,-9.121 0.512,0"
         style="fill:#c4c4c2;fill-opacity:1;fill-rule:nonzero;stroke:none"
         id="path6107" /><path
         d="m 357.121,308.324 -24.297,41.231 c -1.168,-3.942 -1.242,-8.614 -2.703,-12.918 1.828,-7.078 5.84,-11.532 8.688,-17.512 1.019,-1.973 2.843,-3.355 2.699,-5.547 l 15.613,-5.254"
         style="fill:#c4c4c2;fill-opacity:1;fill-rule:nonzero;stroke:none"
         id="path6109" /><path
         d="m 360.551,308.617 c 10.949,9.559 18.754,20.578 25.394,32.543 10.145,23.789 12.043,51.156 4.379,74.797 -1.894,4.16 -5.547,7.664 -8.902,10.652 -0.07,0 -0.656,0 -1.168,-0.289 -3.356,-7.297 -4.598,-17.222 -10.141,-22.988 -0.66,0 -0.66,0.586 -1.023,1.461 l 0.949,2.187 -15.031,-17.218 c -0.731,-0.219 -0.949,0.582 -1.387,0.949 l 1.969,6.199 -16.93,-15.176 c -0.582,0 -0.949,0.289 -1.168,1.094 l 3.211,6.129 -16.781,-11.746 -0.586,-8.027 c -14.813,-2.411 -31.086,-1.243 -46.703,-1.606 -1.02,0 -1.606,0 -2.188,0.582 l -2.336,7.809 c -6.492,-1.094 -10.871,4.597 -16.125,6.64 l 1.387,-7.222 c -5.91,2.699 -10.437,8.535 -16.055,13.426 0,-1.461 1.461,-3.43 1.168,-5.403 -0.293,-0.437 -0.511,-1.019 -1.168,-1.168 -6.128,3.723 -11.382,9.707 -15.98,15.254 l 0.656,-4.598 c 0,-0.582 -0.074,-1.312 -0.437,-1.605 -0.219,-0.293 -0.586,-0.363 -1.168,-0.582 -5.981,5.617 -8.903,13.719 -12.84,21.891 -0.293,0.582 -1.242,0.8 -1.824,1.386 -0.368,0 -0.95,0 -1.535,0.364 -0.145,0.218 -0.29,0.586 -0.508,1.168 -7.52,5.398 -2.41,17.367 -7.153,26.195 l -7.515,-4.305 c 4.523,-20.504 18.023,-33.199 27.945,-49.472 4.379,-5.547 9.559,-10.438 14.231,-15.762 9.703,-9.27 18.824,-16.93 29.187,-24.156 0.73,-0.364 1.242,-0.582 1.75,-0.731 4.09,4.379 7.957,9.563 15.617,10.508 4.379,-0.656 7.371,-2.477 10.727,-3.649 2.261,-0.945 2.629,-4.742 1.972,-7.222 -0.878,-4.524 -3.14,-8.465 -1.242,-12.406 l 8.828,4.234 c 11.75,7.297 22.77,14.449 32.985,23.422 0.949,1.754 2.117,2.41 2.699,4.234 l 2.117,1.531 c 0.293,0 0.731,0 1.094,-0.363 1.168,-1.168 0,-2.992 0,-4.523 -1.531,-3.36 -5.543,-3.942 -7.809,-6.422 l 27.075,-48.309 0.363,0.293"
         style="fill:#9a4472;fill-opacity:1;fill-rule:nonzero;stroke:none"
         id="path6111" /><path
         d="m 171.191,311.316 4.016,5.618 c 11.457,13.5 25.758,28.824 41.156,37.214 l -2.703,12.262 c 0,1.168 1.754,1.531 2.774,1.168 0.293,-0.293 0.511,-0.805 0.875,-1.168 0.66,-15.91 9.632,-27.363 19.41,-38.164 3.722,-2.699 6.859,-7.371 10.801,-8.832 2.773,4.016 3.648,10.074 8.609,13.211 0,0.219 0.148,0.801 0.148,1.164 -5.109,4.965 -11.605,9.195 -16.203,14.449 -7.808,7.008 -14.957,13.938 -21.668,19.922 -16.054,17.805 -31.015,35.172 -39.551,57.574 -2.484,-2.043 -3.867,-5.035 -6.058,-7.441 -14.231,-29.336 -23.934,-68.738 -7.442,-98.586 1.825,-3.355 3.43,-5.836 5.543,-8.828 l 0.293,0.437"
         style="fill:#9a4472;fill-opacity:1;fill-rule:nonzero;stroke:none"
         id="path6113" /><path
         d="m 175.426,311.973 c 13.351,6.129 28.312,11.457 34.734,25.757 0,3.797 1.895,7.446 1.895,10.508 -9.485,-6.492 -18.094,-14.812 -27.657,-24.008 -3.062,-4.304 -7.296,-8.097 -9.558,-12.257 l 0.586,0"
         style="fill:#c4c4c2;fill-opacity:1;fill-rule:nonzero;stroke:none"
         id="path6115" /><path
         d="m 310.785,311.973 1.969,9.996 -17.438,9.414 c 0.95,-2.699 3.723,-7.371 3.137,-11.676 0.219,-0.73 0.293,-1.312 0.586,-1.605 l 11.746,-6.129"
         style="fill:#c4c4c2;fill-opacity:1;fill-rule:nonzero;stroke:none"
         id="path6117" /><path
         d="m 338.297,314.234 -8.613,15.618 -1.969,-10.145 10.582,-5.547 0,0.074"
         style="fill:#9a4472;fill-opacity:1;fill-rule:nonzero;stroke:none"
         id="path6119" /><path
         d="m 202.934,323.867 4.964,2.043 0.145,3.356 -5.473,-5.399 0.364,0"
         style="fill:#9a4472;fill-opacity:1;fill-rule:nonzero;stroke:none"
         id="path6121" /><path
         d="m 313.195,325.547 3.43,18.973 -17.879,-11.02 14.156,-8.172 0.293,0.219"
         style="fill:#9a4472;fill-opacity:1;fill-rule:nonzero;stroke:none"
         id="path6123" /><path
         d="m 210.887,326.496 10.508,2.406 1.242,11.676 -4.742,10.727 c -0.512,0.582 -1.168,-0.219 -1.532,-0.586 l -3.867,-16.344 -2.191,-7.734 0.582,-0.145"
         style="fill:#c4c4c2;fill-opacity:1;fill-rule:nonzero;stroke:none"
         id="path6125" /><path
         d="m 224.969,329.852 4.379,0.949 c 0,0 0.511,0.219 0.586,0.801 l -4.817,6.277 -0.73,-7.809 0.582,-0.218"
         style="fill:#9a4472;fill-opacity:1;fill-rule:nonzero;stroke:none"
         id="path6127" /><path
         d="m 287.945,334.957 0.364,0.148 c -0.364,3.211 -4.086,4.305 -6.567,5.836 -4.89,1.243 -9.996,2.043 -13.793,-0.363 -0.219,-1.168 -1.164,-2.41 -0.582,-3.797 l 20.578,-1.824"
         style="fill:#fbe305;fill-opacity:1;fill-rule:nonzero;stroke:none"
         id="path6129" /><path
         d="m 259.852,335.469 3.355,1.531 1.754,5.766 c -6.059,5.254 -13.793,10.07 -19.703,15.91 -26.414,24.734 -46.774,48.523 -57.867,82.676 -3.793,-1.75 -4.887,-5.985 -7.297,-8.977 7.445,-26.051 25.832,-45.387 44.074,-65.383 11.602,-10.359 23.352,-22.402 34.371,-30.937 0.801,-0.442 0.945,-0.442 1.313,-0.586"
         style="fill:#c4c4c2;fill-opacity:1;fill-rule:nonzero;stroke:none"
         id="path6131" /><path
         d="m 289.477,341.16 c 0.148,1.242 0.293,2.774 -0.364,3.942 -3.867,3.503 -10.726,4.16 -16.199,4.304 l -3.285,-4.886 c 0.586,-1.168 1.898,0.363 3.285,0.363 5.18,-0.293 11.09,-1.168 15.981,-4.016 l 0.582,0.293"
         style="fill:#fbe305;fill-opacity:1;fill-rule:nonzero;stroke:none"
         id="path6133" /><path
         d="m 290.645,348.02 -0.293,2.699 c -2.77,3.14 -8.465,3.941 -13.133,2.191 -1.242,-0.293 -0.656,-0.656 -1.242,-0.949 l 14.375,-4.086 0.293,0.145"
         style="fill:#fbe305;fill-opacity:1;fill-rule:nonzero;stroke:none"
         id="path6135" /><path
         d="m 286.195,370.641 9.121,-0.289 c 0.582,0.363 0,0 0.657,0.582 l -0.586,16.418 -21.524,1.605 c -1.461,-5.254 0.801,-11.164 2.114,-16.781 0.074,-0.293 0.293,-0.442 0.656,-0.879 l 9.195,-0.945 0.367,0.289"
         style="fill:#ffffff;fill-opacity:1;fill-rule:nonzero;stroke:none"
         id="path6137" /><path
         d="m 300.859,370.352 20.071,1.968 1.457,22.328 -19.774,-7.078 c -0.875,0 -2.117,0.438 -3.285,0.075 l -0.074,-15.469 c 0.074,-0.66 0.441,-1.824 1.605,-1.824"
         style="fill:#ffffff;fill-opacity:1;fill-rule:nonzero;stroke:none"
         id="path6139" /><path
         d="m 271.527,378.449 -2.336,11.094 -9.339,2.043 c -14.012,2.699 -28.387,10.797 -41.082,16.711 -1.168,0.582 -1.387,1.164 -2.336,1.387 l 5.105,-11.606 c 1.387,-0.289 0,2.41 1.098,2.774 l 2.918,1.168 c 4.379,-3.942 6.492,-11.09 13.281,-14.961 -0.656,2.117 -3.359,3.652 -2.191,6.421 0.367,0.586 0.656,1.168 1.898,1.461 l 14.082,-13.5 -2.113,4.161 0.949,2.043 2.769,0.293 c 5.622,-3.43 9.852,-7.735 17.297,-9.489"
         style="fill:#ba9737;fill-opacity:1;fill-rule:nonzero;stroke:none"
         id="path6141" /><path
         d="m 325.09,381.223 3.355,2.699 c 5.035,1.68 8.321,8.613 14.157,10.726 0.582,0 1.312,-0.289 1.679,-0.582 1.164,-0.949 0.219,-2.699 -0.074,-3.941 5.18,2.992 8.391,10.434 14.156,13.5 0.364,0 0.657,-0.293 1.168,-0.582 0.657,-0.66 0.438,-2.191 0.364,-3.43 l 13.136,16.93 3.211,7.367 -48.82,-25.539 c -2.043,-4.891 -3.137,-11.383 -2.918,-17.148 l 0.586,0"
         style="fill:#ba9737;fill-opacity:1;fill-rule:nonzero;stroke:none"
         id="path6143" /><path
         d="m 282.836,390.711 c 9.051,-0.293 17.441,0.219 26.562,1.824 25.54,11.676 49.329,24.371 71.442,38.672 l 4.523,16.93 c -0.293,9.926 7.953,21.746 1.168,30.429 -0.875,0.731 -1.461,0.731 -2.043,1.68 -0.367,16.274 -10.437,30.281 -15.691,45.024 -2.113,6.277 -2.699,14.156 -8.828,16.418 -33.567,5.765 -66.77,-1.532 -100.117,-8.098 -15.981,-6.641 -31.161,-13.5 -44.438,-21.164 -0.512,-0.293 -0.805,-0.656 -1.168,-1.238 -5.254,-1.606 -6.058,-8.028 -7.953,-13.5 -1.023,-13.5 -10.219,-28.68 -4.309,-40.356 1.168,-0.363 1.532,-0.512 1.899,-1.238 l -1.531,-4.598 c 0.582,-7.371 2.699,-14.375 4.523,-21.965 1.168,-4.379 -0.582,-8.976 3.137,-11.824 15.687,-10.508 35.027,-20.504 56.625,-24.227 5.691,-1.164 11.019,-1.531 16.199,-2.769"
         style="fill:#9a4472;fill-opacity:1;fill-rule:nonzero;stroke:none"
         id="path6145" /><path
         d="m 282.836,428.801 0.512,0.293 -1.606,2.699 c 0,0.582 0,0.949 0.145,1.68 3.285,1.894 6.058,-2.118 9.414,-2.848 6.133,-2.48 13.355,-2.117 18.535,0.73 2.043,1.387 3.648,2.918 5.691,2.481 l 0.805,-4.16 c 2.773,-0.293 5.766,1.242 7.516,3.211 2.043,2.699 2.48,6.422 4.011,8.465 l 21.528,13.281 c 0.293,0.293 0.875,0.875 1.242,1.461 10.434,8.027 23.422,13.644 31.379,26.414 -4.817,4.379 -12.918,4.742 -19.121,8.246 -3.574,0 -6.641,1.461 -9.414,1.898 -6.785,1.676 -13.133,1.094 -19.336,1.457 -27.949,-0.363 -56.481,0 -83.262,-7.808 -17.66,-6.199 -31.449,-15.832 -42.832,-30.793 16.125,-9.121 37.578,-11.676 56.332,-17.512 1.461,0 2.699,-0.586 3.355,-1.168 2.485,-3.941 6.934,-6.496 11.75,-7.808 1.313,0.363 2.262,-0.805 3.356,-0.219"
         style="fill:#231f20;fill-opacity:1;fill-rule:nonzero;stroke:none"
         id="path6147" /><path
         d="m 299.695,431.574 15.832,6.129 2.848,-0.512 c 1.238,-0.656 0.949,-2.554 1.238,-4.011 4.309,2.406 4.891,8.902 4.672,14.668 -1.238,5.179 -3.722,8.246 -7.66,10.507 -4.746,2.774 -10.801,3.356 -16.348,4.817 -10.214,0.726 -21.89,-2.043 -27.363,-9.563 -1.387,0.075 -0.805,-0.582 -1.168,-1.457 -0.437,-0.293 -0.949,-0.293 -1.531,-0.656 -2.848,-4.527 -1.754,-10.437 1.094,-14.668 2.48,-2.992 4.742,-4.234 8.171,-5.035 0,1.531 0.583,4.379 2.262,4.742 4.965,1.824 8.028,-2.117 11.821,-3.211 1.753,-1.312 3.871,-0.949 5.476,-1.969 l 0.656,0.219"
         style="fill:#231f20;fill-opacity:1;fill-rule:nonzero;stroke:none"
         id="path6149" /><path
         d="m 265.543,440.77 c -1.824,6.054 0.949,11.675 4.453,15.832 2.332,1.824 3.5,4.16 5.617,5.109 13.575,7.441 30.867,5.18 44.95,-1.313 4.89,-4.16 8.175,-8.539 7.734,-14.011 0,-0.657 -0.145,-1.242 -0.438,-1.68 18.754,9.563 34.446,20.652 51.008,36.707 -14.738,8.246 -33.711,11.965 -51.008,9.922 -3.574,-0.438 -6.929,0.73 -10.07,-0.219 -7.367,0.586 -13.719,-0.363 -20.941,-0.363 -12.625,-0.219 -24.153,-0.949 -36.196,-3.574 -7.367,-1.754 -12.55,-4.528 -18.754,-6.934 -11.964,-5.035 -22.617,-14.086 -31.011,-23.644 12.039,-6.567 27.656,-8.465 41.156,-13.352 4.672,-0.586 9.266,-2.191 13.5,-2.48"
         style="fill:#ba9737;fill-opacity:1;fill-rule:nonzero;stroke:none"
         id="path6151" /><path
         d="m 270.652,462.66 c 0.508,0 0.946,0 1.606,0.293 1.75,1.168 1.019,3.938 0,5.473 -7.371,3.5 -16.86,5.543 -25.832,5.617 -0.367,0 -1.535,-0.656 -0.949,-1.531 9.558,0 18.39,-3.942 24.664,-9.852 l 0.511,0"
         style="fill:#231f20;fill-opacity:1;fill-rule:nonzero;stroke:none"
         id="path6153" /><path
         d="m 270.652,462.66 c 0.508,0 0.946,0 1.606,0.293 1.75,1.168 1.019,3.938 0,5.473 -7.371,3.5 -16.86,5.543 -25.832,5.617 -0.367,0 -1.535,-0.656 -0.949,-1.531 9.558,0 18.39,-3.942 24.664,-9.852 l 0.511,0 z"
         style="fill:none;stroke:#231f20;stroke-opacity:1;stroke-width:0.217917;stroke-linecap:butt;stroke-linejoin:miter;stroke-miterlimit:4;stroke-dasharray:none"
         id="path6155" /><path
         d="m 322.535,464.121 2.262,0.508 c 5.105,7.371 12.476,12.48 21.965,13.574 1.093,0.219 2.117,-0.074 2.773,-0.074 0,0 0.363,0.219 0.656,0.805 0.071,0.363 -0.218,1.019 -0.586,1.312 -10.359,0.363 -19.921,-4.891 -27.437,-10.07 -1.313,-0.875 -1.02,-3.211 -1.313,-4.817 0,-0.293 0.875,-1.168 1.68,-1.238"
         style="fill:#231f20;fill-opacity:1;fill-rule:nonzero;stroke:none"
         id="path6157" /><path
         d="m 218.188,517.098 c 16.562,7.879 33.562,17.511 53.558,22.035 22.258,3.43 43.781,6.57 65.746,7.738 6.422,0 12.77,0.219 18.684,-1.605 -0.512,4.011 -5.547,7.078 -9.125,9.629 -2.481,0.878 -3.356,2.117 -5.543,2.992 -0.586,-0.289 -0.805,-0.875 -1.68,-1.094 -0.437,0 -0.875,0.219 -1.168,0.586 l -0.801,2.332 c -27.73,13.281 -63.414,15.105 -90.339,-0.219 -16.129,-9.633 -21.602,-29.187 -29.332,-42.394"
         style="fill:#9a4472;fill-opacity:1;fill-rule:nonzero;stroke:none"
         id="path6159" /><path
         d="m 233.363,552.926 0.582,0 15.325,11.238 c -0.875,9.047 0.074,20.797 -6.274,27.363 -0.805,0.219 -1.387,0.512 -1.68,0.805 -10.507,-4.523 -18.097,-14.086 -20.871,-25.906 -0.582,-4.817 0.805,-8.246 4.524,-10.582 2.554,-2.043 6.133,-1.239 8.394,-2.918"
         style="fill:#ba9737;fill-opacity:1;fill-rule:nonzero;stroke:none"
         id="path6161" /><path
         d="m 340.922,561.609 c 4.816,4.672 9.051,11.383 7.59,18.829 -0.657,1.531 -1.606,2.699 -1.824,3.941 -4.524,4.523 -10.727,9.266 -18.243,10.066 -2.699,-0.218 -4.16,-1.82 -5.179,-3.867 -1.754,-7.734 -1.243,-15.32 1.531,-22.473 l 15.324,-6.57 0.801,0.074"
         style="fill:#ba9737;fill-opacity:1;fill-rule:nonzero;stroke:none"
         id="path6163" /><path
         d="m 232.777,561.902 c 2.993,-0.293 4.817,1.676 6.641,4.012 1.242,6.352 3.066,12.699 2.48,18.465 -0.289,0.289 -0.582,0.437 -1.238,0.582 -0.293,0 -0.656,-0.145 -0.875,-0.582 0.219,-5.547 0.289,-13.137 -3.648,-17.809 -0.293,0 -0.66,0 -0.949,0.368 -1.536,1.167 -0.586,3.941 -1.825,5.691 -0.148,0.074 -0.586,0.363 -1.097,0.582 -1.457,0 -2.918,-1.387 -3.356,-2.918 l -0.582,-4.961 c 0.582,-1.898 2.481,-2.699 4.449,-3.43"
         style="fill:#231f20;fill-opacity:1;fill-rule:nonzero;stroke:none"
         id="path6165" /><path
         d="m 337.492,567.738 2.336,0.731 2.774,3.578 -0.438,4.523 c -0.074,0.145 -0.367,0.364 -0.656,0.731 -1.68,0.726 -3.797,0 -5.035,-1.317 -1.094,-1.531 -1.461,-2.992 -2.336,-3.937 -0.145,-0.223 -0.657,-0.367 -1.024,-0.367 -2.113,1.023 -3.062,3.722 -2.992,6.715 0,4.085 2.992,4.742 2.703,8.32 -0.293,0.508 -1.242,0.726 -2.043,0.363 -2.922,-3.941 -2.922,-10 -1.535,-15.031 1.317,-2.117 2.703,-3.578 4.891,-3.942 1.461,0.364 2.336,-0.656 3.355,-0.367"
         style="fill:#231f20;fill-opacity:1;fill-rule:nonzero;stroke:none"
         id="path6167" /><path
         d="m 305.457,450.617 c -0.875,0.805 -1.387,1.899 -1.387,3.067 0,0.804 0.219,1.461 0.66,2.117 l -0.218,-0.805 -0.149,-1.094 0.149,-1.093 0.289,-1.024 0.512,-0.945 0.144,-0.223"
         style="fill:#5c595a;fill-opacity:1;fill-rule:nonzero;stroke:none"
         id="path6169" /><path
         d="m 314.07,456.457 c 0.657,-0.73 1.094,-1.605 1.094,-2.555 l -0.293,0 -0.074,1.024 -0.289,0.949 -0.438,0.582"
         style="fill:#676565;fill-opacity:1;fill-rule:nonzero;stroke:none"
         id="path6171" /><path
         d="m 315.164,453.902 c 0,-0.074 0,-0.144 0,-0.218 0,-1.825 -1.168,-3.43 -2.992,-4.231 l 0.512,0.289 0.73,0.586 0.582,0.731 0.512,0.875 0.289,0.949 0.074,1.019 0.293,0"
         style="fill:#676565;fill-opacity:1;fill-rule:nonzero;stroke:none"
         id="path6173" /><path
         d="m 305.094,450.984 c 0.801,-0.949 1.898,-1.679 3.211,-1.968 l -0.438,0.218 -0.875,0.508 -0.73,0.586 -0.582,0.731 -0.512,0.875 -0.293,0.949 -0.074,1.019 0.074,1.024 0.293,0.949 0.512,0.875 0.363,0.508 c -0.586,-0.438 -1.168,-1.094 -1.461,-1.75 l -0.144,-0.512 -0.149,-1.094 0.149,-1.093 0.292,-1.024 0.364,-0.801"
         style="fill:#676565;fill-opacity:1;fill-rule:nonzero;stroke:none"
         id="path6175" /><path
         d="m 314.215,456.313 c -0.512,0.656 -1.168,1.167 -1.969,1.531 l 0.219,-0.074 0.656,-0.582 0.582,-0.657 0.438,-0.804 0.293,-0.875 0.074,-0.95 0.437,0 -0.074,-1.019 -0.363,-0.949 -0.438,-0.875 -0.656,-0.731 -0.66,-0.586 c -0.875,-0.508 -1.969,-0.875 -3.137,-0.875 -0.512,0 -1.094,0.074 -1.605,0.219 l -0.145,0.148 -0.875,0.438 -0.73,0.656 -0.657,0.731 -0.437,0.875 -0.367,0.949 -0.071,1.019 0.071,1.024 0.367,0.949 0.437,0.875 0.438,0.438 c 0.512,0.437 1.168,0.8 1.898,0.949 l -0.73,-0.367 -0.656,-0.582 -0.586,-0.657 -0.438,-0.804 -0.293,-0.875 -0.07,-0.95 0.07,-0.949 0.293,-0.875 0.438,-0.801 0.586,-0.66 0.656,-0.582 0.801,-0.437 0.875,-0.293 0.949,-0.071 0.949,0.071 0.875,0.293 0.805,0.437 0.656,0.582 0.582,0.66 0.438,0.801 0.293,0.875 0.074,0.949 0.437,0 -0.074,1.024 -0.363,0.949 -0.293,0.438"
         style="fill:#727071;fill-opacity:1;fill-rule:nonzero;stroke:none"
         id="path6177" /><path
         d="m 312.684,457.625 c -0.875,0.512 -1.899,0.73 -3.067,0.73 -0.656,0 -1.387,-0.074 -1.969,-0.292 l -0.437,-0.219 -0.731,-0.586 -0.585,-0.727 -0.438,-0.804 -0.289,-0.875 -0.074,-0.95 0.074,-0.949 0.289,-0.875 0.438,-0.801 0.585,-0.73 0.731,-0.586 0.801,-0.438 0.875,-0.289 0.949,-0.074 0.949,0.074 0.875,0.289 0.805,0.438 0.73,0.586 0.582,0.73 0.438,0.801 0.293,0.875 0.07,0.949 -0.437,0 -0.071,0.875 -0.293,0.805 -0.363,0.731 -0.512,0.656 -0.656,0.511 -0.73,0.364 -0.805,0.293 -0.875,0.07 -0.875,-0.07 -0.801,-0.293 -0.73,-0.364 -0.586,-0.511 -0.582,-0.656 -0.367,-0.731 -0.29,-0.805 -0.074,-0.875 0.074,-0.875 0.29,-0.804 0.367,-0.727 0.582,-0.586 0.586,-0.582 0.73,-0.367 0.801,-0.289 0.875,-0.074 0.875,0.074 0.805,0.289 0.73,0.367 0.656,0.582 0.512,0.586 0.363,0.727 0.293,0.804 0.071,0.875 0.437,0 -0.07,0.95 -0.293,0.875 -0.438,0.804 -0.582,0.727 -0.511,0.367"
         style="fill:#7f7d7e;fill-opacity:1;fill-rule:nonzero;stroke:none"
         id="path6179" /><path
         d="m 314.215,453.902 -0.074,0.875 -0.289,0.805 -0.368,0.731 -0.582,0.656 -0.656,0.582 -0.73,0.367 -0.805,0.289 -0.875,0.074 -0.875,-0.074 -0.801,-0.289 -0.73,-0.367 -0.657,-0.582 -0.585,-0.656 -0.364,-0.731 -0.293,-0.805 -0.074,-0.875 0.074,-0.875 0.293,-0.804 0.364,-0.727 0.585,-0.656 0.657,-0.586 0.73,-0.363 0.801,-0.293 0.875,-0.075 0.875,0.075 0.805,0.293 0.73,0.363 0.656,0.586 0.582,0.656 0.368,0.727 0.289,0.804 0.074,0.875 -0.512,0 -0.07,0.805 -0.219,0.727 -0.367,0.66 -0.512,0.508 -0.508,0.511 -0.656,0.367 -0.73,0.219 -0.805,0.071 -0.801,-0.071 -0.73,-0.219 -0.657,-0.367 -0.511,-0.511 -0.512,-0.508 -0.363,-0.66 -0.219,-0.727 -0.074,-0.805 0.074,-0.8 0.219,-0.731 0.363,-0.656 0.512,-0.512 0.511,-0.512 0.657,-0.363 0.73,-0.219 0.801,-0.074 0.805,0.074 0.73,0.219 0.656,0.363 0.508,0.512 0.512,0.512 0.367,0.656 0.219,0.731 0.07,0.8 0.512,0"
         style="fill:#8b8889;fill-opacity:1;fill-rule:nonzero;stroke:none"
         id="path6181" /><path
         d="m 313.777,453.902 -0.074,0.805 -0.219,0.727 -0.363,0.66 -0.512,0.582 -0.582,0.512 -0.656,0.363 -0.73,0.219 -0.805,0.074 -0.801,-0.074 -0.73,-0.219 -0.657,-0.363 -0.585,-0.512 -0.508,-0.582 -0.367,-0.66 -0.219,-0.727 -0.074,-0.805 0.074,-0.8 0.219,-0.731 0.367,-0.656 0.508,-0.586 0.585,-0.512 0.657,-0.363 0.73,-0.219 0.801,-0.074 0.805,0.074 0.73,0.219 0.656,0.363 0.582,0.512 0.512,0.586 0.363,0.656 0.219,0.731 0.074,0.8 -0.437,0 -0.074,0.731 -0.219,0.582 -0.293,0.66 -0.438,0.508 -0.507,0.437 -0.657,0.293 -0.586,0.219 -0.73,0.074 -0.731,-0.074 -0.582,-0.219 -0.656,-0.293 -0.512,-0.437 -0.437,-0.508 -0.293,-0.66 -0.219,-0.582 -0.07,-0.731 0.07,-0.73 0.219,-0.582 0.293,-0.656 0.437,-0.512 0.512,-0.438 0.656,-0.293 0.582,-0.218 0.731,-0.071 0.73,0.071 0.586,0.218 0.657,0.293 0.507,0.438 0.438,0.512 0.293,0.656 0.219,0.582 0.074,0.73 0.437,0"
         style="fill:#989696;fill-opacity:1;fill-rule:nonzero;stroke:none"
         id="path6183" /><path
         d="m 313.414,453.902 -0.074,0.731 -0.219,0.656 -0.293,0.586 -0.437,0.582 -0.582,0.438 -0.586,0.293 -0.657,0.218 -0.73,0.074 -0.731,-0.074 -0.656,-0.218 -0.582,-0.293 -0.586,-0.438 -0.437,-0.582 -0.289,-0.586 -0.219,-0.656 -0.074,-0.731 0.074,-0.73 0.219,-0.656 0.289,-0.582 0.437,-0.586 0.586,-0.438 0.582,-0.293 0.656,-0.215 0.731,-0.074 0.73,0.074 0.657,0.215 0.586,0.293 0.582,0.438 0.437,0.586 0.293,0.582 0.219,0.656 0.074,0.73 -0.437,0 -0.075,0.586 -0.148,0.582 -0.363,0.582 -0.364,0.442 -0.437,0.363 -0.586,0.363 -0.582,0.149 -0.586,0.07 -0.582,-0.07 -0.586,-0.149 -0.582,-0.363 -0.438,-0.363 -0.367,-0.442 -0.363,-0.582 -0.145,-0.582 -0.074,-0.586 0.074,-0.582 0.145,-0.586 0.363,-0.582 0.367,-0.437 0.438,-0.367 0.582,-0.364 0.586,-0.144 0.582,-0.074 0.586,0.074 0.582,0.144 0.586,0.364 0.437,0.367 0.364,0.437 0.363,0.582 0.148,0.586 0.075,0.582 0.437,0"
         style="fill:#a3a1a2;fill-opacity:1;fill-rule:nonzero;stroke:none"
         id="path6185" /><path
         d="m 313.047,453.902 -0.07,0.657 -0.149,0.586 -0.363,0.507 -0.367,0.512 -0.508,0.367 -0.512,0.364 -0.586,0.144 -0.656,0.074 -0.656,-0.074 -0.582,-0.144 -0.512,-0.364 -0.512,-0.367 -0.363,-0.512 -0.293,-0.507 -0.219,-0.586 -0.074,-0.657 0.074,-0.656 0.219,-0.582 0.293,-0.512 0.363,-0.511 0.512,-0.364 0.512,-0.293 0.582,-0.218 0.656,-0.075 0.656,0.075 0.586,0.218 0.512,0.293 0.508,0.364 0.367,0.511 0.363,0.512 0.149,0.582 0.07,0.656 -0.438,0 -0.074,0.512 -0.144,0.512 -0.293,0.508 -0.289,0.441 -0.438,0.289 -0.512,0.293 -0.511,0.145 -0.512,0.074 -0.508,-0.074 -0.512,-0.145 -0.511,-0.293 -0.364,-0.289 -0.367,-0.441 -0.293,-0.508 -0.144,-0.512 -0.074,-0.512 0.074,-0.511 0.144,-0.508 0.293,-0.512 0.367,-0.363 0.364,-0.367 0.511,-0.293 0.512,-0.145 0.508,-0.074 0.512,0.074 0.511,0.145 0.512,0.293 0.438,0.367 0.289,0.363 0.293,0.512 0.144,0.508 0.074,0.511 0.438,0"
         style="fill:#aeadad;fill-opacity:1;fill-rule:nonzero;stroke:none"
         id="path6187" /><path
         d="m 312.684,453.902 -0.075,0.586 -0.144,0.508 -0.293,0.512 -0.363,0.367 -0.368,0.363 -0.511,0.293 -0.508,0.145 -0.586,0.074 -0.582,-0.074 -0.512,-0.145 -0.512,-0.293 -0.363,-0.363 -0.367,-0.367 -0.289,-0.512 -0.148,-0.508 -0.071,-0.586 0.071,-0.582 0.148,-0.511 0.289,-0.512 0.367,-0.363 0.363,-0.368 0.512,-0.289 0.512,-0.148 0.582,-0.07 0.586,0.07 0.508,0.148 0.511,0.289 0.368,0.368 0.363,0.363 0.293,0.512 0.144,0.511 0.075,0.582 -0.512,0 -0.074,0.438 -0.145,0.437 -0.219,0.438 -0.293,0.293 -0.289,0.293 -0.441,0.219 -0.438,0.144 -0.437,0.074 -0.438,-0.074 -0.437,-0.144 -0.438,-0.219 -0.293,-0.293 -0.289,-0.293 -0.218,-0.438 -0.149,-0.437 -0.074,-0.438 0.074,-0.437 0.149,-0.438 0.218,-0.437 0.289,-0.293 0.293,-0.289 0.438,-0.223 0.437,-0.144 0.438,-0.075 0.437,0.075 0.438,0.144 0.441,0.223 0.289,0.289 0.293,0.293 0.219,0.437 0.145,0.438 0.074,0.437 0.512,0"
         style="fill:#b8b7b7;fill-opacity:1;fill-rule:nonzero;stroke:none"
         id="path6189" /><path
         d="m 312.246,453.902 -0.074,0.512 -0.145,0.438 -0.218,0.363 -0.293,0.367 -0.364,0.293 -0.367,0.219 -0.437,0.144 -0.512,0.075 -0.508,-0.075 -0.441,-0.144 -0.364,-0.219 -0.363,-0.293 -0.293,-0.367 -0.219,-0.363 -0.148,-0.438 -0.07,-0.512 0.07,-0.511 0.148,-0.438 0.219,-0.363 0.293,-0.367 0.363,-0.289 0.364,-0.219 0.441,-0.149 0.508,-0.07 0.512,0.07 0.437,0.149 0.367,0.219 0.364,0.289 0.293,0.367 0.218,0.363 0.145,0.438 0.074,0.511 -0.437,0 -0.149,0.731 -0.437,0.656 -0.657,0.438 -0.73,0.148 -0.731,-0.148 -0.656,-0.438 -0.437,-0.656 -0.145,-0.731 0.145,-0.73 0.437,-0.656 0.656,-0.438 0.731,-0.144 0.73,0.144 0.657,0.438 0.437,0.656 0.149,0.73 0.437,0"
         style="fill:#c4c3c3;fill-opacity:1;fill-rule:nonzero;stroke:none"
         id="path6191" /><path
         d="m 311.879,453.902 -0.145,0.805 -0.437,0.656 -0.656,0.438 -0.805,0.144 -0.801,-0.144 -0.656,-0.438 -0.438,-0.656 -0.148,-0.805 0.148,-0.8 0.438,-0.657 0.656,-0.437 0.801,-0.149 0.805,0.149 0.656,0.437 0.437,0.657 0.145,0.8 -0.438,0 -0.144,0.657 -0.293,0.511 -0.512,0.293 -0.656,0.145 -0.582,-0.145 -0.512,-0.293 -0.363,-0.511 -0.149,-0.657 0.149,-0.582 0.363,-0.511 0.512,-0.364 0.582,-0.148 0.656,0.148 0.512,0.364 0.293,0.511 0.144,0.582 0.438,0"
         style="fill:#d1d0d0;fill-opacity:1;fill-rule:nonzero;stroke:none"
         id="path6193" /><path
         d="m 311.516,453.902 -0.145,0.657 -0.367,0.511 -0.512,0.364 -0.656,0.148 -0.656,-0.148 -0.512,-0.364 -0.363,-0.511 -0.145,-0.657 0.145,-0.656 0.363,-0.512 0.512,-0.363 0.656,-0.148 0.656,0.148 0.512,0.363 0.367,0.512 0.145,0.656 -0.512,0 -0.074,0.438 -0.289,0.367 -0.368,0.289 -0.437,0.074 -0.438,-0.074 -0.363,-0.289 -0.293,-0.367 -0.074,-0.438 0.074,-0.437 0.293,-0.363 0.363,-0.293 0.438,-0.075 0.437,0.075 0.368,0.293 0.289,0.363 0.074,0.437 0.512,0"
         style="fill:#dcdbdb;fill-opacity:1;fill-rule:nonzero;stroke:none"
         id="path6195" /><path
         d="m 311.078,453.902 -0.074,0.438 -0.293,0.437 -0.438,0.293 -0.437,0.075 -0.438,-0.075 -0.437,-0.293 -0.293,-0.437 -0.07,-0.438 0.07,-0.437 0.293,-0.438 0.437,-0.293 0.438,-0.07 0.437,0.07 0.438,0.293 0.293,0.438 0.074,0.437 -0.437,0 -0.075,0.293 -0.144,0.293 -0.293,0.145 -0.293,0.074 -0.289,-0.074 -0.293,-0.145 -0.149,-0.293 -0.07,-0.293 0.07,-0.293 0.149,-0.289 0.293,-0.148 0.289,-0.07 0.293,0.07 0.293,0.148 0.144,0.289 0.075,0.293 0.437,0"
         style="fill:#e7e7e7;fill-opacity:1;fill-rule:nonzero;stroke:none"
         id="path6197" /><path
         d="m 310.711,453.902 -0.07,0.293 -0.219,0.293 -0.293,0.219 -0.293,0.07 -0.289,-0.07 -0.293,-0.219 -0.219,-0.293 -0.074,-0.293 0.074,-0.293 0.219,-0.289 0.293,-0.218 0.289,-0.075 0.293,0.075 0.293,0.218 0.219,0.289 0.07,0.293 0,0"
         style="fill:#f4f4f4;fill-opacity:1;fill-rule:nonzero;stroke:none"
         id="path6199" /><path
         d="m 310.348,453.902 -0.075,0.149 -0.07,0.219 -0.219,0.07 -0.148,0.074 -0.145,-0.074 -0.218,-0.07 -0.075,-0.219 -0.07,-0.149 0.07,-0.144 0.075,-0.219 0.218,-0.074 0.145,-0.074 0.148,0.074 0.219,0.074 0.07,0.219 0.075,0.144 0,0"
         style="fill:#ffffff;fill-opacity:1;fill-rule:nonzero;stroke:none"
         id="path6201" /><path
         d="M 389.012,53.8711 455.855,8.99219 467.09,9.79297 389.012,53.8711"
         style="fill:#231f20;fill-opacity:1;fill-rule:nonzero;stroke:none"
         id="path6203" /></g></g></svg>